<svg lang="en" data-xhash="revolver:sense-protection" viewBox="0 0 512 512" role="banner" width="512px" height="512px" xmlns="http://www.w3.org/2000/svg">
  <title>RevolveR CMF Sense</title>
  <desc>RevolveR Contents Management Framework with Sense</desc>
  <script>console.log('RevolveR CMF :: [ https:/revolver.team ]');</script>
  <defs>
    <filter id="inner-shadow-filter-0" x="-500%" y="-500%" width="1000%" height="1000%">
      <feOffset dx="0" dy="0"/>
      <feGaussianBlur stdDeviation="15"/>
      <feComposite operator="out" in="SourceGraphic"/>
      <feComponentTransfer result="choke">
        <feFuncA type="linear" slope="0.4"/>
      </feComponentTransfer>
      <feFlood flood-color="rgba(88,149,193,0.7)" result="color"/>
      <feComposite operator="in" in="color" in2="choke" result="shadow"/>
      <feComposite operator="over" in="shadow" in2="SourceGraphic"/>
    </filter>
    <filter id="drop-shadow-filter-0" x="-500%" y="-500%" width="1000%" height="1000%">
      <feGaussianBlur in="SourceAlpha" stdDeviation="0"/>
      <feOffset dx="4" dy="4"/>
      <feComponentTransfer result="offsetblur">
        <feFuncA id="spread-ctrl" type="linear" slope="0.62"/>
      </feComponentTransfer>
      <feFlood flood-color="rgba(0,0,0,0.3)" x="10" y="10"/>
      <feComposite in2="offsetblur" operator="in"/>
      <feMerge>
        <feMergeNode/>
        <feMergeNode in="SourceGraphic"/>
      </feMerge>
    </filter>
    <filter id="inner-shadow-filter-1" x="-500%" y="-500%" width="1000%" height="1000%">
      <feOffset dx="0" dy="0"/>
      <feGaussianBlur stdDeviation="5"/>
      <feComposite operator="out" in="SourceGraphic"/>
      <feComponentTransfer result="choke">
        <feFuncA type="linear" slope="0.6"/>
      </feComponentTransfer>
      <feFlood flood-color="rgba(50,54,58,0.7)" result="color"/>
      <feComposite operator="in" in="color" in2="choke" result="shadow"/>
      <feComposite operator="over" in="shadow" in2="SourceGraphic"/>
    </filter>
    <path id="text-path-0" d="M 172.67663726769388 153.36193545334885 Q 252.8967279046774 110.21661069244146 333.1168185416609 153.36193545334885"/>
  </defs>
  <path data-xhash="revolver:sense-shield" d="M 247.666 -8.92 C 253.892 -9.547 260.705 -7.938 265.963 -6.169 C 271.221 -4.401 275.786 -1.536 275.786 -1.536 L 290.053 8.569 L 305.182 19.611 L 320.311 30.653 L 335.439 41.697 L 350.568 52.739 L 365.697 63.783 L 380.827 74.825 L 395.955 85.869 L 411.084 96.911 L 426.214 107.955 L 441.342 118.997 L 455.96 130.405 C 455.96 130.405 459.789 133.521 463.445 138.53 C 467.1 143.537 471.091 150.073 472.438 156.183 C 473.675 161.799 473.083 168.363 472.181 173.525 C 471.279 178.684 469.219 182.755 469.219 182.755 L 461.737 197.598 L 453.407 212.755 L 445.076 227.913 L 436.746 243.07 L 428.415 258.227 L 420.085 273.385 L 411.754 288.542 L 403.424 303.699 L 395.094 318.856 L 386.764 334.014 L 378.433 349.171 L 369.992 363.324 C 369.992 363.324 366.634 368.623 361.992 373.751 C 357.35 378.879 351.532 384.841 346.832 388.175 C 342.329 391.369 335.829 394.342 330.452 396.515 C 325.076 398.689 320.477 399.81 320.477 399.81 L 304.519 402.775 L 288.213 405.486 L 271.905 408.197 L 255.599 410.908 L 239.292 413.619 L 222.985 416.33 L 206.677 419.041 L 190.37 421.752 L 174.063 424.462 L 157.757 427.174 L 141.449 429.884 L 125.142 432.596 C 125.142 432.596 121.26 433.467 116.271 433.521 C 111.284 433.577 105.191 432.814 100.769 429.547 C 96.398 426.317 93.251 420.334 91.198 415.158 C 89.143 409.985 88.182 405.617 88.182 405.617 L 86.01 389.418 L 83.839 373.219 L 81.667 357.019 L 79.494 340.818 L 77.322 324.619 L 75.15 308.42 L 72.978 292.22 L 70.806 276.019 L 68.633 259.82 L 66.461 243.62 L 64.289 227.42 L 62.477 211.482 C 62.477 211.482 62.084 206.681 62.463 200.84 C 62.841 195.001 63.63 187.861 65.271 182.655 C 67 177.169 70.965 169.855 74.499 163.911 C 78.033 157.968 81.574 153.719 81.574 153.719 L 92.814 140.687 L 104.495 127.974 L 116.176 115.263 L 127.857 102.55 L 139.538 89.839 L 151.218 77.128 L 162.899 64.417 L 174.579 51.704 L 186.261 38.994 L 197.686 25.785 C 197.686 25.785 201.396 21.53 206.042 15.977 C 210.688 10.422 216.529 4.067 221.304 0.859 C 225.197 -1.757 228.933 -3.913 233.122 -5.56 C 237.312 -7.206 241.955 -8.344 247.666 -8.92 Z" style="paint-order: fill; fill: rgb(34, 75, 119); stroke-opacity: 0.85; stroke-width: 5px; stroke-dashoffset: -2px; stroke-miterlimit: 10; stroke: rgba(51, 51, 51, 0.9); filter: url(#inner-shadow-filter-0); mix-blend-mode: darken; isolation: isolate;" transform="matrix(0.807711, -0.589579, 0.589579, 0.807711, -73.648308, 198.652069)"/>
  <path data-xhash="revolver:revolver-sense-blitz-logo" style="stroke-width: 1.4px; stroke: rgb(202, 42, 40); paint-order: fill; vector-effect: non-scaling-stroke; fill: none; stroke-dasharray: 4, 2; filter: url(#drop-shadow-filter-0);" d="M 206.633 177.457 L 210.557 281.347 L 239.953 255.914 L 235.391 296.022 L 230.827 336.13 L 245.564 324.195 L 260.299 312.261 L 254.452 347.83 L 248.606 383.399 L 260.525 373.386 L 272.445 363.376 L 273.117 399.876 L 273.788 436.375 M 246.728 147.389 L 239.989 231.292 C 239.989 231.292 272.446 207.053 271.438 206.988 L 264.974 247.582 L 258.508 288.173 L 291.89 258.877 L 272.464 342.55 L 285.114 332.583 L 297.764 322.617 L 285.776 379.494 L 273.788 436.374 M 206.466 177.237 L 246.775 147.151">
  </path>
  <path data-xhash="revolver:revolver-sense-logo-text" d="M 186.751 147.351 C 186.433 147.506 185.963 147.72 185.341 147.994 C 182.4 149.29 179.509 150.235 176.669 150.831 C 173.828 151.426 172.011 151.462 171.219 150.936 C 170.967 150.778 170.764 150.525 170.611 150.177 C 170.461 149.835 170.626 149.103 171.108 147.98 C 171.592 146.864 171.987 146.238 172.292 146.104 C 172.597 145.97 172.963 145.94 173.389 146.014 C 173.812 146.097 174.291 146.21 174.827 146.353 C 175.366 146.502 175.947 146.629 176.569 146.734 C 178.07 146.983 179.638 146.747 181.273 146.027 C 181.926 145.74 182.378 145.344 182.629 144.84 C 182.887 144.333 182.904 143.826 182.681 143.32 C 182.458 142.814 182.098 142.451 181.601 142.233 C 181.096 142.011 180.511 141.883 179.847 141.847 C 179.189 141.809 178.474 141.797 177.7 141.81 C 176.926 141.823 176.137 141.81 175.333 141.77 C 174.532 141.737 173.772 141.649 173.054 141.507 C 171.469 141.185 170.398 140.389 169.839 139.12 C 169.277 137.845 169.177 136.575 169.537 135.309 C 169.901 134.034 170.544 132.858 171.469 131.781 C 172.399 130.701 173.521 129.642 174.834 128.605 C 177.152 126.804 179.47 125.394 181.788 124.373 C 184.106 123.351 186.316 122.521 188.415 121.88 C 190.521 121.236 192.05 120.978 193.002 121.105 C 193.261 121.13 193.498 121.386 193.713 121.874 C 193.93 122.368 194.067 123.15 194.122 124.218 C 194.181 125.277 194.115 126.312 193.926 127.32 C 193.734 128.323 193.427 128.917 193.006 129.102 C 192.841 129.175 192.67 129.166 192.492 129.077 C 190.639 128.16 188.968 127.559 187.481 127.274 C 185.987 126.992 184.572 127.146 183.236 127.734 C 182.211 128.186 181.57 128.716 181.314 129.324 C 181.057 129.932 181.028 130.462 181.227 130.914 C 181.423 131.359 181.855 131.679 182.524 131.872 C 183.198 132.064 183.973 132.163 184.851 132.17 C 185.737 132.18 186.707 132.215 187.76 132.276 C 188.814 132.336 189.811 132.433 190.751 132.565 C 191.682 132.694 192.545 132.991 193.34 133.457 C 194.129 133.925 194.75 134.675 195.205 135.706 C 195.661 136.743 195.731 137.918 195.413 139.231 C 198.297 137.196 200.429 135.321 201.808 133.606 C 202.038 133.301 202.263 133.1 202.483 133.003 C 202.965 132.791 203.313 132.929 203.528 133.417 C 203.708 133.826 203.625 134.307 203.278 134.86 C 202.929 135.422 202.282 136.195 201.339 137.179 C 200.404 138.166 199.252 139.248 197.885 140.426 C 194.691 143.181 190.98 145.489 186.751 147.351 ZM 236.643 125.513 C 237.118 125.406 237.405 125.573 237.506 126.015 C 237.606 126.457 237.377 126.94 236.819 127.463 C 236.261 127.986 235.553 128.571 234.695 129.217 C 233.841 129.855 232.643 130.657 231.098 131.623 C 227.556 133.849 223.361 135.512 218.511 136.613 C 209.312 138.702 204.069 136.915 202.783 131.253 C 202.156 128.49 202.473 125.837 203.735 123.294 C 204.998 120.758 206.973 118.587 209.66 116.781 C 212.34 114.976 215.413 113.68 218.878 112.893 C 222.35 112.105 225.013 112.064 226.869 112.771 C 228.727 113.484 229.869 114.78 230.295 116.659 C 230.734 118.59 230.321 120.341 229.058 121.913 C 227.79 123.493 225.946 124.873 223.527 126.051 C 221.088 127.233 218.236 128.325 214.97 129.327 C 215.669 131.383 217.479 132.353 220.399 132.237 C 221.147 132.19 221.921 132.076 222.72 131.894 C 225.906 131.171 230.281 129.169 235.847 125.889 C 236.189 125.681 236.455 125.556 236.643 125.513 Z M 214.478 127.07 C 216.703 125.881 218.349 124.458 219.415 122.8 C 220.48 121.137 220.796 119.352 220.363 117.448 C 220.25 116.947 219.996 116.584 219.603 116.359 C 219.21 116.134 218.682 116.096 218.019 116.247 C 217.363 116.396 216.742 116.838 216.156 117.572 C 215.571 118.307 215.14 119.191 214.862 120.225 C 214.263 122.377 214.135 124.659 214.478 127.07 ZM 279.046 126.324 C 279.559 126.335 279.81 126.583 279.8 127.07 C 279.791 127.55 279.529 127.964 279.015 128.314 C 278.501 128.67 277.742 129.071 276.74 129.517 C 275.737 129.964 274.497 130.451 273.019 130.981 C 271.534 131.504 269.821 131.946 267.88 132.306 C 265.939 132.666 264.089 132.828 262.329 132.792 C 258.183 132.707 256.13 131.714 256.169 129.815 C 256.194 128.588 256.943 126.41 258.414 123.279 C 259.879 120.149 260.622 118.03 260.645 116.924 C 260.67 115.684 259.713 115.044 257.774 115.004 C 256.894 114.986 255.895 115.076 254.778 115.273 C 254.206 117.135 253.198 120.088 251.755 124.133 C 250.311 128.177 249.497 130.478 249.313 131.034 C 249.128 131.59 248.749 131.863 248.176 131.851 L 237.393 131.859 C 237.24 131.856 237.072 131.759 236.889 131.569 C 236.7 131.371 236.608 131.146 236.613 130.893 C 236.618 130.633 236.934 129.723 237.559 128.162 C 238.185 126.608 238.876 124.935 239.633 123.143 C 240.39 121.352 241.087 119.376 241.725 117.215 C 242.363 115.061 242.696 113.271 242.726 111.844 L 242.722 111.054 C 242.736 110.354 243.42 110.018 244.773 110.046 L 254.696 110.02 C 255.056 110.028 255.327 110.14 255.509 110.357 C 255.684 110.581 255.769 110.849 255.762 111.162 C 255.756 111.476 255.669 111.981 255.501 112.677 C 260.456 110.725 264.509 109.782 267.662 109.847 C 269.002 109.874 270.214 110.269 271.298 111.032 C 272.508 111.877 273.095 113.139 273.061 114.819 C 273.026 116.532 272.333 118.765 270.983 121.517 C 269.626 124.263 268.941 125.966 268.927 126.626 C 268.901 127.919 269.404 128.576 270.437 128.598 C 271.09 128.611 272.215 128.387 273.812 127.927 C 275.401 127.466 276.58 127.084 277.346 126.779 C 278.119 126.468 278.686 126.317 279.046 126.324 ZM 291.719 137.687 C 291.374 137.608 290.873 137.481 290.216 137.306 C 287.112 136.476 284.265 135.405 281.676 134.092 C 279.087 132.779 277.648 131.67 277.359 130.765 C 277.262 130.483 277.262 130.159 277.36 129.792 C 277.456 129.431 278.044 128.964 279.122 128.389 C 280.198 127.821 280.898 127.58 281.22 127.666 C 281.542 127.753 281.846 127.958 282.131 128.283 C 282.409 128.612 282.713 129 283.042 129.447 C 283.369 129.9 283.742 130.363 284.162 130.833 C 285.177 131.967 286.547 132.765 288.273 133.226 C 288.963 133.41 289.563 133.384 290.075 133.148 C 290.593 132.914 290.923 132.53 291.066 131.995 C 291.209 131.461 291.155 130.953 290.904 130.472 C 290.648 129.983 290.272 129.516 289.777 129.073 C 289.287 128.632 288.737 128.174 288.125 127.7 C 287.513 127.226 286.906 126.723 286.303 126.189 C 285.699 125.662 285.161 125.118 284.69 124.557 C 283.656 123.315 283.318 122.024 283.676 120.684 C 284.035 119.338 284.752 118.284 285.825 117.522 C 286.906 116.755 288.144 116.24 289.539 115.978 C 290.941 115.718 292.478 115.594 294.152 115.606 C 297.086 115.652 299.777 116.002 302.224 116.656 C 304.672 117.31 306.915 118.044 308.954 118.858 C 310.999 119.674 312.354 120.429 313.017 121.124 C 313.203 121.305 313.227 121.653 313.09 122.168 C 312.95 122.69 312.568 123.385 311.943 124.253 C 311.325 125.116 310.627 125.882 309.849 126.55 C 309.071 127.212 308.461 127.483 308.016 127.364 C 307.842 127.318 307.714 127.204 307.631 127.023 C 306.759 125.148 305.832 123.634 304.849 122.481 C 303.861 121.327 302.661 120.561 301.25 120.184 C 300.168 119.895 299.337 119.908 298.756 120.222 C 298.176 120.536 297.821 120.931 297.694 121.408 C 297.568 121.878 297.706 122.397 298.106 122.967 C 298.512 123.538 299.055 124.1 299.735 124.655 C 300.42 125.217 301.154 125.852 301.938 126.558 C 302.722 127.264 303.44 127.963 304.09 128.655 C 304.735 129.338 305.223 130.11 305.552 130.97 C 305.874 131.829 305.89 132.803 305.599 133.892 C 305.306 134.987 304.625 135.947 303.556 136.772 C 307.08 136.989 309.916 136.86 312.064 136.385 C 312.435 136.291 312.736 136.275 312.967 136.337 C 313.476 136.473 313.662 136.799 313.524 137.314 C 313.409 137.745 313.043 138.068 312.427 138.283 C 311.802 138.503 310.814 138.701 309.463 138.878 C 308.116 139.063 306.54 139.188 304.736 139.251 C 300.521 139.401 296.182 138.88 291.719 137.687 ZM 344.216 151.775 C 344.655 151.985 344.777 152.294 344.582 152.704 C 344.386 153.113 343.907 153.349 343.145 153.414 C 342.383 153.478 341.465 153.498 340.391 153.473 C 339.326 153.444 337.888 153.33 336.077 153.131 C 331.918 152.681 327.595 151.385 323.107 149.242 C 314.595 145.177 311.59 140.524 314.092 135.284 C 315.313 132.727 317.206 130.843 319.773 129.63 C 322.336 128.424 325.232 127.945 328.46 128.194 C 331.682 128.439 334.896 129.328 338.102 130.859 C 341.315 132.393 343.43 134.013 344.448 135.718 C 345.463 137.429 345.556 139.154 344.725 140.893 C 343.872 142.679 342.462 143.798 340.497 144.248 C 338.522 144.701 336.22 144.64 333.592 144.064 C 330.945 143.48 328.03 142.568 324.847 141.329 C 324.121 143.376 324.939 145.259 327.302 146.978 C 327.918 147.406 328.596 147.796 329.336 148.149 C 332.284 149.557 336.958 150.699 343.358 151.576 C 343.755 151.626 344.041 151.692 344.216 151.775 Z M 325.86 139.253 C 328.343 139.7 330.517 139.604 332.381 138.965 C 334.248 138.32 335.602 137.116 336.444 135.353 C 336.665 134.89 336.691 134.448 336.523 134.028 C 336.354 133.607 335.963 133.251 335.349 132.958 C 334.742 132.667 333.981 132.629 333.066 132.842 C 332.152 133.056 331.265 133.482 330.406 134.121 C 328.602 135.439 327.086 137.149 325.86 139.253 Z" transform="matrix(1.3203150033950806, 0, 0, 1.3264859914779663, -77.68433380126953, -55.14411163330078)" style="fill: rgba(226, 38, 38, 0.82); stroke: rgb(9, 9, 9); stroke-opacity: 0.33; text-transform: lowercase; white-space: pre; filter: url(#inner-shadow-filter-1); text-decoration: overline solid rgba(0, 0, 0, 0.8);"/>
</svg>
